<svg height="512" viewBox="0 0 64 64" width="512" xmlns="http://www.w3.org/2000/svg"><circle cx="32" cy="32" fill="#3e3d42" r="30"/><circle cx="32" cy="32" fill="#ffeb99" r="14"/><circle cx="32" cy="32" fill="#2d2d30" r="3"/><path d="m32 1a31 31 0 1 0 31 31 31.035 31.035 0 0 0 -31-31zm0 60a29 29 0 1 1 29-29 29.033 29.033 0 0 1 -29 29z"/><path d="m32 7a25.292 25.292 0 0 1 2.557.129.892.892 0 0 0 .1.005 1 1 0 0 0 .1-1.995 27.556 27.556 0 0 0 -2.757-.139 1 1 0 0 0 0 2z"/><path d="m28.88 6.166a1 1 0 0 0 -1.145-.831 26.861 26.861 0 0 0 -22.735 26.665 1 1 0 0 0 2 0 24.869 24.869 0 0 1 21.05-24.689 1 1 0 0 0 .83-1.145z"/><path d="m32 17a15 15 0 1 0 15 15 15.017 15.017 0 0 0 -15-15zm0 28a13 13 0 1 1 13-13 13.015 13.015 0 0 1 -13 13z"/><path d="m32 36a4 4 0 1 0 -4-4 4 4 0 0 0 4 4zm0-6a2 2 0 1 1 -2 2 2 2 0 0 1 2-2z"/><path d="m32 41a9.064 9.064 0 0 1 -1.752-.17 1 1 0 1 0 -.387 1.962 11.009 11.009 0 0 0 13.139-10.792 1 1 0 0 0 -2 0 9.01 9.01 0 0 1 -9 9z"/><path d="m31.621 39.06a1 1 0 0 0 1 .913.851.851 0 0 0 .088 0 8.049 8.049 0 0 0 7.291-7.973 1 1 0 0 0 -2 0 6.036 6.036 0 0 1 -5.47 5.977 1 1 0 0 0 -.909 1.083z"/></svg>